<?xml version="1.0" encoding="UTF-8"?>
<svg width="512" height="512" viewBox="0 0 512 512" xmlns="http://www.w3.org/2000/svg">

  <defs>
    <linearGradient id="knGradient" x1="0%" y1="100%" x2="100%" y2="0%">
      <stop offset="0%" stop-color="#6A00FF"/>
      <stop offset="100%" stop-color="#FF00A8"/>
    </linearGradient>
  </defs>

  <!-- Chat bubble outline -->
  <path d="
    M100 80
    Q80 80 80 100
    L80 340
    Q80 360 100 360
    L240 360
    L256 410
    L310 360
    L412 360
    Q432 360 432 340
    L432 100
    Q432 80 412 80
    Z"
    fill="none"
    stroke="url(#knGradient)"
    stroke-width="28"
    stroke-linejoin="round"
  />

  <!-- Letters KN -->
  <g fill="url(#knGradient)">
    <!-- K -->
    <path d="M150 150 L150 300 L180 300 L180 230 L240 300 L280 300 L210 220 L275 150 L235 150 L180 210 L180 150 Z"/>
    
    <!-- N -->
    <path d="M290 300 L290 150 L320 150 L380 245 L380 150 L410 150 L410 300 L380 300 L320 205 L320 300 Z"/>
  </g>

</svg>
